<?xml version="1.0" encoding="UTF-8"?>
<svg version="1.1" xmlns="http://www.w3.org/2000/svg" width="1000" height="1000">
<path d="M0 0 C330 0 660 0 1000 0 C1000 330 1000 660 1000 1000 C670 1000 340 1000 0 1000 C0 670 0 340 0 0 Z " fill="#FEFEFE" transform="translate(0,0)"/>
<path d="M0 0 C0.83712524 -0.00137466 1.67425049 -0.00274933 2.53674316 -0.00416565 C3.45168045 -0.00057037 4.36661774 0.0030249 5.3092804 0.00672913 C6.27532196 0.0065831 7.24136353 0.00643707 8.23667908 0.00628662 C11.43448623 0.00698411 14.63223536 0.01476889 17.83003235 0.02259827 C20.0453488 0.02446303 22.26066566 0.02588666 24.47598267 0.02688599 C30.31048214 0.03070659 36.14495677 0.040533 41.97944641 0.05158997 C47.93159143 0.06181389 53.88374046 0.06638571 59.83589172 0.07142639 C71.51754503 0.08215565 83.19917336 0.09974879 94.8808136 0.12025452 C94.8808136 8.04025452 94.8808136 15.96025452 94.8808136 24.12025452 C92.3216217 24.13483704 89.76242981 24.14941956 87.12568665 24.16444397 C78.67979485 24.21473126 70.23408855 24.28131575 61.78837872 24.35596943 C56.66661838 24.40073918 51.54493881 24.43998064 46.42304993 24.46669006 C41.48217162 24.49265727 36.54160301 24.53301264 31.60091591 24.58344078 C29.7138688 24.60015416 27.82676806 24.61164051 25.93965721 24.61786842 C23.30081416 24.62746107 20.66277149 24.6554614 18.02412415 24.68788147 C16.84808372 24.68572884 16.84808372 24.68572884 15.64828491 24.68353271 C11.51484136 24.74548344 11.51484136 24.74548344 7.85623169 26.48321533 C6.62574681 28.18162535 6.62574681 28.18162535 7.1308136 30.74525452 C7.65827005 33.05149521 7.65827005 33.05149521 8.8808136 34.12025452 C10.94976188 34.22310669 13.02221004 34.255985 15.09370422 34.26210022 C15.74263641 34.26557465 16.3915686 34.26904907 17.06016541 34.27262878 C18.47502784 34.27999971 19.88990195 34.28533794 21.30477905 34.28891945 C23.55055609 34.29607878 25.79611382 34.31174514 28.04182434 34.33026123 C34.42920247 34.38272688 40.81646728 34.43062095 47.20405579 34.44618225 C51.10878296 34.45631924 55.01296829 34.48579697 58.91748047 34.52750206 C60.40044028 34.53974698 61.88347692 34.5449453 63.3664856 34.54270363 C71.60926928 34.53331857 78.64560014 34.79303649 85.8808136 39.12025452 C86.85758057 39.67227287 86.85758057 39.67227287 87.8540802 40.23544312 C93.64745893 43.64817553 97.43547466 49.76682397 99.5292511 56.07337952 C100.84885493 63.75640629 100.71246724 72.19660189 96.8808136 79.12025452 C91.30322453 86.77243464 85.84385212 91.13257501 76.8808136 94.12025452 C75.12998546 94.21062998 73.37586948 94.24221278 71.62271118 94.24050903 C69.98838638 94.24257103 69.98838638 94.24257103 68.32104492 94.24467468 C66.52785576 94.23928177 66.52785576 94.23928177 64.69844055 94.23377991 C63.43979187 94.23392593 62.18114319 94.23407196 60.88435364 94.23422241 C57.4321478 94.23450962 53.97997663 94.22862522 50.52777886 94.22164845 C46.92029511 94.21540222 43.31281059 94.21481011 39.70532227 94.21362305 C32.87367441 94.21051349 26.04204253 94.20230513 19.21040171 94.19227356 C11.43297326 94.1811008 3.65554405 94.17559903 -4.12189043 94.17057812 C-20.12099992 94.16012222 -36.12008739 94.14178138 -52.1191864 94.12025452 C-52.1191864 86.20025452 -52.1191864 78.28025452 -52.1191864 70.12025452 C-48.65120544 70.105672 -45.18322449 70.09108948 -41.6101532 70.07606506 C-30.17075068 70.02579939 -18.73147416 69.95936999 -7.29220867 69.8845396 C-0.35442307 69.83955268 6.58331088 69.80014484 13.52119446 69.77381897 C20.21267822 69.74841247 26.90390164 69.70752762 33.59525108 69.65706825 C36.1521692 69.64034248 38.70912705 69.62886392 41.2660923 69.62264061 C44.83884029 69.61306167 48.41099379 69.58507633 51.9835968 69.55262756 C53.0481459 69.55406265 54.11269501 69.55549774 55.20950317 69.55697632 C56.18125488 69.54443817 57.15300659 69.53190002 58.15420532 69.51898193 C58.99948949 69.51437297 59.84477365 69.509764 60.71567249 69.50501537 C63.37668963 69.03213385 64.30266994 68.28881055 65.8808136 66.12025452 C65.80548113 63.49296312 65.80548113 63.49296312 64.8808136 61.12025452 C62.10865094 59.73417319 59.84013914 59.98020169 56.73799133 59.96253967 C55.44582199 59.95227753 54.15365265 59.94201538 52.82232666 59.93144226 C52.12905714 59.92800434 51.43578762 59.92456642 50.72150993 59.92102432 C48.54706633 59.9092229 46.37282025 59.8897628 44.19845581 59.86790466 C38.01508771 59.80636085 31.83173586 59.7524295 25.64814758 59.71888733 C21.86552724 59.69781732 18.08326087 59.66240788 14.30084419 59.61812973 C12.86533367 59.60405636 11.42976045 59.59526705 9.99418449 59.59207535 C-1.03008255 59.5649919 -10.70468758 58.86159343 -19.1191864 51.12025452 C-25.8931213 43.7572818 -27.79302073 35.1599728 -27.52934265 25.33509827 C-26.55588796 17.70506767 -22.58616274 11.75181462 -17.02153015 6.58900452 C-12.06790126 2.76443683 -6.31333024 -0.00800169 0 0 Z " fill="#1B76F8" transform="translate(563.1191864013672,452.87974548339844)"/>
<path d="M0 0 C4.98002425 -0.27356464 9.95561799 -0.47220916 14.94140625 -0.60424805 C16.63358762 -0.65930853 18.32525161 -0.73419271 20.015625 -0.82983398 C33.988814 -1.60017194 33.988814 -1.60017194 38.75244141 2.18994141 C40.84455618 5.02899303 42.44072591 7.840678 44 11 C44.93218395 12.50301395 45.8764085 13.99866913 46.8359375 15.484375 C47.68626563 16.90387701 48.53259235 18.32578329 49.375 19.75 C52.83511918 25.50518251 56.37289291 31.18042027 60.125 36.75 C60.54040039 37.36665527 60.95580078 37.98331055 61.38378906 38.61865234 C61.79338867 39.22660645 62.20298828 39.83456055 62.625 40.4609375 C66.00939427 45.48583799 69.26808563 50.5911886 72.52880859 55.69677734 C75.09541054 59.71491918 77.66589062 63.7305806 80.23583984 67.74658203 C81.68856053 70.01672445 83.14066244 72.28726082 84.59228516 74.55810547 C85.26179199 75.60498535 85.93129883 76.65186523 86.62109375 77.73046875 C87.2236499 78.67301514 87.82620605 79.61556152 88.44702148 80.58666992 C89.6150127 82.40172938 90.80274104 84.20411156 92 86 C92.33 57.62 92.66 29.24 93 0 C104.22 0 115.44 0 127 0 C127 31.02 127 62.04 127 94 C116.089375 94.20625 105.17875 94.4125 93.9375 94.625 C90.50335693 94.71604004 87.06921387 94.80708008 83.53100586 94.90087891 C80.80065822 94.93009231 78.07026699 94.95557281 75.33984375 94.9765625 C74.63751114 95.00269623 73.93517853 95.02882996 73.21156311 95.05575562 C61.65243561 95.46404859 61.65243561 95.46404859 57.61198425 91.88423157 C55.80163308 89.32861869 54.39330681 86.80062199 53 84 C51.91332232 82.30938757 50.81009677 80.62918437 49.68359375 78.96484375 C48.59972654 77.29024939 47.51769138 75.6144678 46.4375 73.9375 C45.35340036 72.25876846 44.26876795 70.58038086 43.18359375 68.90234375 C42.71493896 68.17523193 42.24628418 67.44812012 41.76342773 66.69897461 C39.20351021 62.78095048 36.59609712 58.89414568 34 55 C33.67 67.87 33.34 80.74 33 94 C22.11 94 11.22 94 0 94 C0 79.15 0 64.3 0 49 C14.85 48.505 14.85 48.505 30 48 C27.793125 44.6175 25.58625 41.235 23.3125 37.75 C21.94000752 35.64329213 20.56759587 33.53653159 19.1953125 31.4296875 C16.53322745 27.34503924 13.86176896 23.26685532 11.1796875 19.1953125 C10.59018311 18.2971582 10.00067871 17.39900391 9.39331055 16.47363281 C8.27851197 14.77534799 7.16032474 13.07928144 6.03833008 11.38574219 C5.53454834 10.61649414 5.0307666 9.84724609 4.51171875 9.0546875 C4.07303467 8.38937012 3.63435059 7.72405273 3.18237305 7.03857422 C1.86454716 4.76646063 0.92173939 2.45637007 0 0 Z " fill="#1A76FA" transform="translate(149,453)"/>
<path d="M0 0 C11.22 0 22.44 0 34 0 C34.02578125 3.75632812 34.0515625 7.51265625 34.078125 11.3828125 C34.11655353 15.02676847 34.16171142 18.67058334 34.20751953 22.31445312 C34.23571932 24.84400683 34.25693873 27.37364849 34.27099609 29.90332031 C34.29243829 33.54277546 34.3390986 37.18117415 34.390625 40.8203125 C34.39185364 41.94865509 34.39308228 43.07699768 34.39434814 44.23953247 C34.50952168 50.43460964 34.77483977 54.32554046 39 59 C41.51364756 60.82619087 41.51364756 60.82619087 44 62 C44.99 62.495 44.99 62.495 46 63 C48.53250047 63.13530308 51.03617798 63.21264386 53.5703125 63.23828125 C54.32537079 63.246353 55.08042908 63.25442474 55.85836792 63.26274109 C57.46056828 63.27658466 59.06279817 63.2873056 60.66503906 63.29516602 C63.09498694 63.31228851 65.52354148 63.35615797 67.953125 63.40039062 C79.17697176 63.73263539 79.17697176 63.73263539 89 59 C93.52733658 52.85994499 93.60094102 46.43684317 93.609375 39.0625 C93.62591125 37.94182129 93.64244751 36.82114258 93.65948486 35.66650391 C93.70780621 32.11094596 93.72930147 28.55581527 93.75 25 C93.7781728 22.57940577 93.80810205 20.15883131 93.83984375 17.73828125 C93.91684589 11.82532726 93.95751649 5.91370429 94 0 C104.89 0 115.78 0 127 0 C127.0841724 8.01742138 127.1642746 16.03321755 127.20700073 24.05069733 C127.22801492 27.7852137 127.2560367 31.51935955 127.30175781 35.25366211 C127.3456147 38.85877272 127.36921972 42.46352685 127.37950897 46.0688839 C127.38682972 47.435855 127.4011229 48.80280933 127.42292023 50.16962624 C127.63308551 63.91014197 124.69326559 73.90880688 115.1875 83.90625 C107.90985131 90.8317544 98.97937338 94.09707923 89.01318359 94.16113281 C87.80447601 94.17074036 86.59576843 94.1803479 85.35043335 94.19024658 C84.04627472 94.19449646 82.74211609 94.19874634 81.3984375 94.203125 C80.73056843 94.20595238 80.06269936 94.20877975 79.37459183 94.21169281 C75.83582415 94.22666654 72.297097 94.2359057 68.75830078 94.24023438 C65.12718594 94.24569683 61.49645028 94.26968228 57.86545372 94.29820633 C55.05305962 94.31696659 52.24075411 94.3220455 49.42830276 94.32357025 C47.44657274 94.32801699 45.46489039 94.34660246 43.48324585 94.36553955 C30.9836734 94.33498251 20.58109854 91.59290087 10.9921875 83.25390625 C3.73560917 75.69889721 -0.13498209 65.33132927 -0.11352539 54.94628906 C-0.11344986 53.72532532 -0.11337433 52.50436157 -0.11329651 51.24639893 C-0.10813522 49.93274353 -0.10297394 48.61908813 -0.09765625 47.265625 C-0.09579021 45.9037074 -0.09436718 44.54178912 -0.09336853 43.17987061 C-0.08955803 39.60258111 -0.07974032 36.02533248 -0.06866455 32.44805908 C-0.05841884 28.79480553 -0.05380929 25.14154515 -0.04882812 21.48828125 C-0.03864791 14.32548479 -0.01907255 7.16280042 0 0 Z " fill="#1A77FA" transform="translate(675,453)"/>
<path d="M0 0 C38.94 0 77.88 0 118 0 C118 9.57 118 19.14 118 29 C104.14 29 90.28 29 76 29 C76 50.45 76 71.9 76 94 C65.11 94 54.22 94 43 94 C42.67 72.88 42.34 51.76 42 30 C28.14 29.67 14.28 29.34 0 29 C0 19.43 0 9.86 0 0 Z " fill="#1976FB" transform="translate(410,453)"/>
<path d="M0 0 C15.77064869 -0.52243834 31.53427451 -0.94463894 47.31109715 -1.19167995 C54.63938853 -1.30951913 61.96181035 -1.47020455 69.28637695 -1.73510742 C122.66846262 -3.62943707 122.66846262 -3.62943707 134.89982128 6.71097851 C139.86717923 11.42865856 143.92481055 16.86971371 147 23 C147 23.33 147 23.66 147 24 C98.49 24 49.98 24 0 24 C0 16.08 0 8.16 0 0 Z " fill="#1C76F6" transform="translate(293,523)"/>
<path d="M0 0 C10.89 0 21.78 0 33 0 C33 31.02 33 62.04 33 94 C22.11 94 11.22 94 0 94 C0 62.98 0 31.96 0 0 Z " fill="#1A76F9" transform="translate(818,453)"/>
<path d="M0 0 C11.20653516 -0.524063 22.40468325 -0.94392798 33.62079716 -1.19167995 C38.83189609 -1.31072586 44.0340466 -1.47141205 49.23999023 -1.73510742 C87.04927847 -3.60188573 87.04927847 -3.60188573 98.72943401 6.71097851 C103.79739097 11.58798243 108.2591947 17.04096525 112 23 C112 23.33 112 23.66 112 24 C75.04 24 38.08 24 0 24 C0 16.08 0 8.16 0 0 Z " fill="#1977FC" transform="translate(293,488)"/>
<path d="M0 0 C51.56516809 -3.78913376 51.56516809 -3.78913376 62.70703125 5.0859375 C68.44292863 10.14515899 73.25081557 16.35026904 77 23 C77 23.33 77 23.66 77 24 C51.59 24 26.18 24 0 24 C0 16.08 0 8.16 0 0 Z " fill="#1D76F5" transform="translate(293,453)"/>
<path d="M0 0 C0.66 0 1.32 0 2 0 C1.6875 2.375 1.6875 2.375 1 5 C-2.21629135 7.14419424 -3.03067318 7.24856996 -6.72660828 7.24050903 C-8.18423584 7.24463303 -8.18423584 7.24463303 -9.67131042 7.24884033 C-10.73585953 7.24164978 -11.80040863 7.23445923 -12.8972168 7.22705078 C-14.01931549 7.22734283 -15.14141418 7.22763489 -16.29751587 7.22793579 C-20.01482821 7.22653993 -23.73194132 7.21096648 -27.44921875 7.1953125 C-30.02325837 7.19158329 -32.5972994 7.18873588 -35.17134094 7.18673706 C-41.25928368 7.17987511 -47.34714393 7.16410439 -53.43505555 7.14403808 C-60.36605932 7.12168845 -67.2970665 7.11068801 -74.22809732 7.10064721 C-88.4854431 7.07973838 -102.74270432 7.04305839 -117 7 C-117 14.92 -117 22.84 -117 31 C-100.30130087 30.91450644 -83.60271422 30.82088948 -66.90415096 30.71247292 C-59.15039471 30.66239105 -51.3966488 30.61594769 -43.64282227 30.578125 C-36.88311471 30.54514227 -30.12348843 30.5052765 -23.36387068 30.45720994 C-19.78604567 30.43200727 -16.20827413 30.41020776 -12.63038445 30.39665604 C-8.63229608 30.38138361 -4.63446495 30.35074192 -0.63647461 30.31884766 C0.54460373 30.31668747 1.72568207 30.31452728 2.94255066 30.31230164 C8.67665509 30.25384525 13.59056542 29.95616401 19 28 C19 28.66 19 29.32 19 30 C11.56806528 32.96598707 5.20006625 33.41948424 -2.75585938 33.35644531 C-4.00402435 33.35848969 -5.25218933 33.36053406 -6.53817749 33.36264038 C-9.93450889 33.3651197 -13.33028363 33.35432066 -16.7265377 33.33711338 C-20.2868 33.3219987 -23.84705963 33.32324973 -27.40734863 33.32244873 C-33.37545986 33.31876771 -39.34345525 33.30385138 -45.31152344 33.28125 C-52.979962 33.25226899 -60.64830797 33.24201505 -68.31679535 33.2375679 C-74.91147053 33.23359549 -81.50612549 33.22110179 -88.10078621 33.20722103 C-90.22195006 33.20311881 -92.3431132 33.2001951 -94.46427917 33.19742584 C-98.40264784 33.19164197 -102.34095522 33.17697655 -106.27929688 33.16113281 C-107.45845673 33.16001495 -108.63761658 33.15889709 -109.85250854 33.15774536 C-110.91788849 33.15203522 -111.98326843 33.14632507 -113.08093262 33.14044189 C-114.4778899 33.1359799 -114.4778899 33.1359799 -115.90306854 33.13142776 C-118 33 -118 33 -119 32 C-119.08758003 30.00035018 -119.10696576 27.9976389 -119.09765625 25.99609375 C-119.09443359 24.78115234 -119.09121094 23.56621094 -119.08789062 22.31445312 C-119.07951172 21.03505859 -119.07113281 19.75566406 -119.0625 18.4375 C-119.05798828 17.15423828 -119.05347656 15.87097656 -119.04882812 14.54882812 C-119.03699545 11.36583978 -119.02051068 8.18294238 -119 5 C-116.09098987 4.03032996 -114.26012509 3.87647554 -111.23542786 3.87974548 C-109.76517906 3.87768349 -109.76517906 3.87768349 -108.26522827 3.87557983 C-106.65437851 3.88097275 -106.65437851 3.88097275 -105.01098633 3.88647461 C-103.87913406 3.88632858 -102.7472818 3.88618256 -101.58113098 3.8860321 C-97.83141173 3.88673005 -94.08174185 3.89451696 -90.33203125 3.90234375 C-87.73557055 3.90420835 -85.13910949 3.90563205 -82.54264832 3.90663147 C-76.40161011 3.91006248 -70.26059235 3.91794794 -64.11956185 3.92798096 C-57.1280921 3.93915562 -50.13662151 3.94465596 -43.14514506 3.94967639 C-28.76342048 3.96013091 -14.38171087 3.97772192 0 4 C0 2.68 0 1.36 0 0 Z " fill="#EAFEFE" transform="translate(628,516)"/>
<path d="M0 0 C40.92 0 81.84 0 124 0 C124 0.33 124 0.66 124 1 C83.41 1 42.82 1 1 1 C1 8.92 1 16.84 1 25 C49.51 25 98.02 25 148 25 C147.67 25.66 147.34 26.32 147 27 C127.85085353 27.02332772 108.70170994 27.04097855 89.55255222 27.05181217 C80.66190174 27.0569754 71.77126006 27.0640186 62.88061523 27.07543945 C55.13438773 27.08538548 47.38816661 27.09185323 39.6419329 27.09408849 C35.53779081 27.09539574 31.43366698 27.09848247 27.32953072 27.10573006 C23.4710536 27.11248899 19.61260235 27.11461722 15.75411987 27.11310768 C14.3338755 27.11338407 12.91363031 27.11538995 11.49339104 27.11920547 C9.5625813 27.12414067 7.63175785 27.12239803 5.70094299 27.12025452 C4.61783624 27.12117631 3.53472948 27.1220981 2.41880131 27.12304783 C0 27 0 27 -1 26 C-1.09893901 24.58218535 -1.13079469 23.1595424 -1.1328125 21.73828125 C-1.13410156 20.86623047 -1.13539063 19.99417969 -1.13671875 19.09570312 C-1.13091797 17.71801758 -1.13091797 17.71801758 -1.125 16.3125 C-1.12886719 15.41337891 -1.13273437 14.51425781 -1.13671875 13.58789062 C-1.13542969 12.70939453 -1.13414062 11.83089844 -1.1328125 10.92578125 C-1.13168457 10.12567627 -1.13055664 9.32557129 -1.12939453 8.5012207 C-0.9817074 5.64640057 -0.46995714 2.81974286 0 0 Z " fill="#DCF7FF" transform="translate(292,522)"/>
<path d="M0 0 C38.94 0 77.88 0 118 0 C118 9.57 118 19.14 118 29 C104.14 29 90.28 29 76 29 C76 28.67 76 28.34 76 28 C89.53 28 103.06 28 117 28 C117 19.42 117 10.84 117 2 C79.05 2 41.1 2 2 2 C2 10.58 2 19.16 2 28 C15.2 28 28.4 28 42 28 C42 28.33 42 28.66 42 29 C28.14 29 14.28 29 0 29 C0 19.43 0 9.86 0 0 Z " fill="#2D77DC" transform="translate(410,453)"/>
<path d="M0 0 C11.22 0 22.44 0 34 0 C34 31.02 34 62.04 34 94 C33.67 94 33.34 94 33 94 C32.67 63.64 32.34 33.28 32 2 C22.1 2 12.2 2 2 2 C2.33 30.38 2.66 58.76 3 88 C0.525 88.495 0.525 88.495 -2 89 C-2.66 88.34 -3.32 87.68 -4 87 C-4.66 86.67 -5.32 86.34 -6 86 C-6.75 84.0625 -6.75 84.0625 -7 82 C-6.01 81.01 -6.01 81.01 -5 80 C-3.68 81.98 -2.36 83.96 -1 86 C-0.67 57.62 -0.34 29.24 0 0 Z " fill="#4187EA" transform="translate(242,453)"/>
<path d="M0 0 C0.66 0 1.32 0 2 0 C1.6875 2.375 1.6875 2.375 1 5 C-2.21629135 7.14419424 -3.03067318 7.24856996 -6.72660828 7.24050903 C-8.18423584 7.24463303 -8.18423584 7.24463303 -9.67131042 7.24884033 C-10.73585953 7.24164978 -11.80040863 7.23445923 -12.8972168 7.22705078 C-14.01931549 7.22734283 -15.14141418 7.22763489 -16.29751587 7.22793579 C-20.01482821 7.22653993 -23.73194132 7.21096648 -27.44921875 7.1953125 C-30.02325837 7.19158329 -32.5972994 7.18873588 -35.17134094 7.18673706 C-41.25928368 7.17987511 -47.34714393 7.16410439 -53.43505555 7.14403808 C-60.36605932 7.12168845 -67.2970665 7.11068801 -74.22809732 7.10064721 C-88.4854431 7.07973838 -102.74270432 7.04305839 -117 7 C-117 14.92 -117 22.84 -117 31 C-117.33 31 -117.66 31 -118 31 C-118.33 22.42 -118.66 13.84 -119 5 C-116.09098987 4.03032996 -114.26012509 3.87647554 -111.23542786 3.87974548 C-109.76517906 3.87768349 -109.76517906 3.87768349 -108.26522827 3.87557983 C-106.65437851 3.88097275 -106.65437851 3.88097275 -105.01098633 3.88647461 C-103.87913406 3.88632858 -102.7472818 3.88618256 -101.58113098 3.8860321 C-97.83141173 3.88673005 -94.08174185 3.89451696 -90.33203125 3.90234375 C-87.73557055 3.90420835 -85.13910949 3.90563205 -82.54264832 3.90663147 C-76.40161011 3.91006248 -70.26059235 3.91794794 -64.11956185 3.92798096 C-57.1280921 3.93915562 -50.13662151 3.94465596 -43.14514506 3.94967639 C-28.76342048 3.96013091 -14.38171087 3.97772192 0 4 C0 2.68 0 1.36 0 0 Z " fill="#D1EEFE" transform="translate(628,516)"/>
<path d="M0 0 C11.53505581 -0.11290486 23.0697454 -0.2046608 34.60522842 -0.25906086 C39.96147417 -0.28516854 45.31732272 -0.32058837 50.67333984 -0.37719727 C55.84103048 -0.43147466 61.00833877 -0.46141171 66.17629242 -0.47438622 C68.14913707 -0.48363374 70.12196051 -0.50169199 72.09464264 -0.52865028 C74.8555493 -0.56488397 77.61487087 -0.56994776 80.37597656 -0.56762695 C81.19381119 -0.58560333 82.01164581 -0.60357971 82.85426331 -0.62210083 C86.93297248 -0.58493775 88.59502686 -0.40441094 91.53900146 2.53547668 C92.26219574 3.75541573 92.26219574 3.75541573 93 5 C91.02 4.34 89.04 3.68 87 3 C87 2.34 87 1.68 87 1 C58.62 1 30.24 1 1 1 C1 8.26 1 15.52 1 23 C36.64 23 72.28 23 109 23 C109.33 22.34 109.66 21.68 110 21 C110.99 22.485 110.99 22.485 112 24 C75.04 24 38.08 24 0 24 C0 16.08 0 8.16 0 0 Z " fill="#2E74D6" transform="translate(293,488)"/>
<path d="M0 0 C0.66 0 1.32 0 2 0 C2.33 30.69 2.66 61.38 3 93 C1.515 93.495 1.515 93.495 0 94 C0 62.98 0 31.96 0 0 Z " fill="#BBDEFE" transform="translate(851,453)"/>
<path d="M0 0 C0.82949158 -0.00029205 1.65898315 -0.00058411 2.51361084 -0.00088501 C5.25698282 0.00050899 8.00008363 0.01607346 10.7434082 0.03173828 C12.64484 0.03546816 14.54627372 0.03831525 16.44770813 0.04031372 C21.45367738 0.04795213 26.45953068 0.06760244 31.4654541 0.08972168 C36.57306347 0.11017561 41.68069156 0.11931447 46.78833008 0.12939453 C56.81116749 0.15084811 66.83391883 0.18498659 76.85668945 0.22705078 C76.85668945 0.88705078 76.85668945 1.54705078 76.85668945 2.22705078 C75.81099289 2.23735825 74.76529633 2.24766571 73.68791199 2.25828552 C63.84368703 2.35594942 53.99952628 2.45867687 44.155406 2.56639004 C39.09418614 2.62160577 34.03296049 2.67502368 28.97167969 2.72436523 C24.08927133 2.7720286 19.20693373 2.82437223 14.32460976 2.87999153 C12.45987009 2.90040612 10.59511103 2.91912069 8.73033714 2.9361248 C6.12288768 2.96018856 3.51557201 2.99024053 0.90820312 3.02172852 C0.13352692 3.02748398 -0.64114929 3.03323944 -1.43930054 3.03916931 C-4.59846873 3.08266905 -7.12434376 3.22072852 -10.14331055 4.22705078 C-10.14331055 5.21705078 -10.14331055 6.20705078 -10.14331055 7.22705078 C-10.80331055 7.22705078 -11.46331055 7.22705078 -12.14331055 7.22705078 C-11.83081055 4.85205078 -11.83081055 4.85205078 -11.14331055 2.22705078 C-7.36075431 -0.29465338 -4.37845287 -0.04015614 0 0 Z " fill="#D2EFFE" transform="translate(581.143310546875,476.77294921875)"/>
<path d="M0 0 C1.32 0.66 2.64 1.32 4 2 C2.88629283 2.78706122 1.75798173 3.55344702 0.625 4.3125 C-0.00148438 4.74175781 -0.62796875 5.17101562 -1.2734375 5.61328125 C-10.08442601 10.09451466 -18.65477031 10.4327362 -28.3984375 10.36328125 C-29.76461791 10.36276134 -31.13079908 10.36328408 -32.49697876 10.36479187 C-35.3394102 10.36470281 -38.18155407 10.35440263 -41.02392578 10.33618164 C-44.66214041 10.31336607 -48.29994092 10.31298079 -51.93820763 10.31969929 C-54.75037302 10.32304133 -57.5624443 10.31640693 -60.37459183 10.30657005 C-62.36653111 10.30087251 -64.35848641 10.30215102 -66.35043335 10.30354309 C-67.55914093 10.29401108 -68.76784851 10.28447906 -70.01318359 10.2746582 C-71.07556244 10.27005081 -72.13794128 10.26544342 -73.23251343 10.26069641 C-75.99211023 10.00074321 -77.64852019 9.4215032 -80 8 C-79.1466658 7.98969254 -78.2933316 7.97938507 -77.41413879 7.96876526 C-69.3658989 7.87072172 -61.31773118 7.76819757 -53.26961231 7.66066074 C-49.13216055 7.60553473 -44.99470159 7.55213151 -40.85717773 7.50268555 C-36.86303916 7.4548894 -32.86898363 7.40254161 -28.87494469 7.34705925 C-27.35237386 7.32670464 -25.82978033 7.30798044 -24.30716896 7.29092598 C-22.17189979 7.26672869 -20.03678547 7.23669607 -17.90161133 7.20532227 C-16.6869368 7.18977798 -15.47226227 7.1742337 -14.22077942 7.15821838 C-11.36407514 7.01788492 -8.77804961 6.65423129 -6 6 C-6 5.34 -6 4.68 -6 4 C-3.03 3.505 -3.03 3.505 0 3 C0 2.01 0 1.02 0 0 Z " fill="#2E75DA" transform="translate(784,537)"/>
<path d="M0 0 C5.96313166 -0.02464574 11.92623395 -0.042834 17.8894043 -0.05493164 C19.91968298 -0.05997278 21.94995802 -0.06680557 23.98022461 -0.07543945 C26.89177347 -0.08751467 29.8032745 -0.09323034 32.71484375 -0.09765625 C33.6283812 -0.10281754 34.54191864 -0.10797882 35.48313904 -0.11329651 C37.65575427 -0.11349168 39.82827296 -0.06211805 42 0 C43 1 43 1 43.12025452 3.54994202 C43.11803391 4.68467453 43.11581329 5.81940704 43.11352539 6.98852539 C43.11344986 8.26977798 43.11337433 9.55103058 43.11329651 10.87110901 C43.10818909 12.27995848 43.10297309 13.68880756 43.09765625 15.09765625 C43.09579202 16.53112234 43.09436814 17.96458907 43.09336853 19.39805603 C43.08954372 23.17759957 43.07971377 26.9571049 43.06866455 30.7366333 C43.05844963 34.59069298 43.05387074 38.44475882 43.04882812 42.29882812 C43.03809146 49.86590287 43.02101549 57.43294609 43 65 C42.67 65 42.34 65 42 65 C41.67 44.21 41.34 23.42 41 2 C27.8 2 14.6 2 1 2 C0.67 1.34 0.34 0.68 0 0 Z " fill="#ACD1FC" transform="translate(410,482)"/>
<path d="M0 0 C0.33 0 0.66 0 1 0 C1.10176424 7.1165744 1.17161829 14.2329598 1.21972656 21.35009766 C1.23979065 23.7691143 1.26704843 26.18808276 1.30175781 28.60693359 C1.35050341 32.09224368 1.37302164 35.57691016 1.390625 39.0625 C1.41127014 40.13677246 1.43191528 41.21104492 1.45318604 42.31787109 C1.45516993 49.01867882 0.48989181 53.2519429 -3 59 C-3.625 57.125 -3.625 57.125 -4 55 C-3.34 54.34 -2.68 53.68 -2 53 C-1.6758908 50.70348615 -1.6758908 50.70348615 -1.69702148 48.01538086 C-1.68037949 46.97768051 -1.66373749 45.93998016 -1.64659119 44.87083435 C-1.63817703 43.74685745 -1.62976288 42.62288055 -1.62109375 41.46484375 C-1.60409927 40.31585098 -1.5871048 39.16685822 -1.56959534 37.98304749 C-1.51631304 34.3012546 -1.47609612 30.61947392 -1.4375 26.9375 C-1.39365083 23.25201349 -1.34700923 19.56661712 -1.29469299 15.88124084 C-1.26260538 13.58430204 -1.23575679 11.28728334 -1.21446228 8.99021912 C-1.20097244 7.95567093 -1.1874826 6.92112274 -1.17358398 5.85522461 C-1.16407211 4.93970322 -1.15456024 4.02418182 -1.14476013 3.08091736 C-1 1 -1 1 0 0 Z " fill="#D3F0FE" transform="translate(768,453)"/>
<path d="M0 0 C0.66 0 1.32 0 2 0 C2 14.85 2 29.7 2 45 C1.01 44.67 0.02 44.34 -1 44 C-0.67 29.48 -0.34 14.96 0 0 Z " fill="#BCDDFE" transform="translate(147,502)"/>
<path d="M0 0 C11.88 0 23.76 0 36 0 C36.66 1.32 37.32 2.64 38 4 C37.34 3.67 36.68 3.34 36 3 C33.37372867 2.91332745 30.77437517 2.88439865 28.1484375 2.90234375 C26.98738998 2.90446617 26.98738998 2.90446617 25.80288696 2.90663147 C23.32688558 2.91223597 20.85097412 2.92478917 18.375 2.9375 C16.69791797 2.94251442 15.02083453 2.94707743 13.34375 2.95117188 C9.22913194 2.96220685 5.11458122 2.97947446 1 3 C0.67 2.01 0.34 1.02 0 0 Z " fill="#2F75D6" transform="translate(149,453)"/>
<path d="M0 0 C1.32 0 2.64 0 4 0 C4 0.66 4 1.32 4 2 C25.78 2 47.56 2 70 2 C70 2.33 70 2.66 70 3 C61.16848225 3.06942341 52.33705802 3.12277203 43.50532722 3.15543652 C39.40465807 3.17111161 35.3041752 3.1923831 31.20361328 3.22631836 C27.24843381 3.25884669 23.29343383 3.27683912 19.33813095 3.28463173 C17.82698616 3.29018704 16.31585151 3.30103491 14.80478287 3.31719017 C12.69271648 3.33887859 10.58139758 3.34197066 8.46923828 3.34057617 C7.26566681 3.34723801 6.06209534 3.35389984 4.822052 3.36076355 C3.89077484 3.24171158 2.95949768 3.12265961 2 3 C1.34 2.01 0.68 1.02 0 0 Z " fill="#E5FBFE" transform="translate(570,485)"/>
<path d="M0 0 C0.33 0 0.66 0 1 0 C1.33 21.12 1.66 42.24 2 64 C-1 61 -1 61 -1.32279968 58.32344055 C-1.29837296 57.24644394 -1.27394623 56.16944733 -1.2487793 55.05981445 C-1.22853195 53.83877518 -1.20828461 52.6177359 -1.18742371 51.35969543 C-1.15006607 50.04087875 -1.11270844 48.72206207 -1.07421875 47.36328125 C-1.04618126 45.99996057 -1.0194913 44.63661157 -0.99409485 43.27323914 C-0.92367511 39.68733777 -0.83495269 36.10211375 -0.74243164 32.51672363 C-0.65122949 28.85708516 -0.57731585 25.19710222 -0.50195312 21.53710938 C-0.35156825 14.35762344 -0.18184901 7.17876519 0 0 Z " fill="#E0FDFE" transform="translate(674,454)"/>
<path d="M0 0 C0 3 0 3 -1.875 5.6875 C-6.29219965 12.57313474 -6.83265194 20.00408838 -5.5 28 C-5.335 28.66 -5.17 29.32 -5 30 C-4.34 30 -3.68 30 -3 30 C-3 31.98 -3 33.96 -3 36 C-5.55150151 34.72424925 -5.66950875 33.89449094 -6.625 31.25 C-9.11006317 23.19275911 -9.39876668 15.05541593 -5.6875 7.375 C-4.08876836 4.48480046 -2.43011905 2.23770493 0 0 Z " fill="#3B82E5" transform="translate(544,462)"/>
<path d="M0 0 C0.99 0.99 1.98 1.98 3 3 C3 3.66 3 4.32 3 5 C2.34 5 1.68 5 1 5 C1 16.88 1 28.76 1 41 C0.67 41 0.34 41 0 41 C0 27.47 0 13.94 0 0 Z " fill="#E5FCFF" transform="translate(182,506)"/>
<path d="M0 0 C3.74525799 3.74525799 3.68909949 7.98270909 4 13 C0.74451247 9.97704729 -1.68977058 6.79537691 -4 3 C-4 2.34 -4 1.68 -4 1 C-2.68 1.33 -1.36 1.66 0 2 C0 1.34 0 0.68 0 0 Z " fill="#287CED" transform="translate(187,505)"/>
<path d="M0 0 C1.32 0.66 2.64 1.32 4 2 C-1.55770389 5.92765107 -7.22077095 8.87012849 -14 10 C-16.296875 9.5703125 -16.296875 9.5703125 -18 9 C-18 8.67 -18 8.34 -18 8 C-14.04 7.34 -10.08 6.68 -6 6 C-6 5.34 -6 4.68 -6 4 C-4.02 3.67 -2.04 3.34 0 3 C0 2.01 0 1.02 0 0 Z " fill="#347DE5" transform="translate(784,537)"/>
<path d="M0 0 C2.31 0.66 4.62 1.32 7 2 C7 2.66 7 3.32 7 4 C8.98 4.66 10.96 5.32 13 6 C13 6.66 13 7.32 13 8 C14.65 8 16.3 8 18 8 C18 8.66 18 9.32 18 10 C11.81250565 9.6743424 6.914033 6.55295191 2 3 C1.34 2.01 0.68 1.02 0 0 Z " fill="#2F7BE4" transform="translate(686,535)"/>
<path d="M0 0 C0.68707555 2.49064888 1 4.37886292 1 7 C-1.1875 9.04296875 -1.1875 9.04296875 -4 11.1875 C-4.928125 11.90292969 -5.85625 12.61835937 -6.8125 13.35546875 C-7.8953125 14.16951172 -7.8953125 14.16951172 -9 15 C-9.66 14.67 -10.32 14.34 -11 14 C-10.54109375 13.57589844 -10.0821875 13.15179687 -9.609375 12.71484375 C-5.47640381 8.76420952 -2.59838877 5.09284198 0 0 Z " fill="#DCF3FE" transform="translate(798,525)"/>
<path d="M0 0 C0.33 0 0.66 0 1 0 C1.66 4.29 2.32 8.58 3 13 C3.66 13 4.32 13 5 13 C5 14.98 5 16.96 5 19 C2.38906455 17.69453228 2.31003364 16.72009785 1.375 14 C-0.1632708 9.1842075 -0.23943895 5.02821785 0 0 Z " fill="#2C78E0" transform="translate(536,479)"/>
<path d="M0 0 C1.32 0.33 2.64 0.66 4 1 C4 1.99 4 2.98 4 4 C5.32 4.33 6.64 4.66 8 5 C8.33 7.64 8.66 10.28 9 13 C6.31765765 10.57542028 4.63143275 7.92489603 2.8125 4.8125 C2.28269531 3.91144531 1.75289062 3.01039063 1.20703125 2.08203125 C0.80871094 1.39496094 0.41039062 0.70789063 0 0 Z " fill="#2C7BE6" transform="translate(167,482)"/>
<path d="M0 0 C3.97497544 3.40712181 5.86793788 7.32760855 8 12 C7.34 12 6.68 12 6 12 C5.67 10.68 5.34 9.36 5 8 C4.34 8 3.68 8 3 8 C2.67 8.66 2.34 9.32 2 10 C1.34 9.34 0.68 8.68 0 8 C0.66 8 1.32 8 2 8 C1.34 5.36 0.68 2.72 0 0 Z " fill="#2E7CE8" transform="translate(225,516)"/>
<path d="M0 0 C0.66 0 1.32 0 2 0 C1.48118887 4.1724106 0.28848726 6.25416821 -2.5625 9.3125 C-3.20316406 10.00988281 -3.84382812 10.70726562 -4.50390625 11.42578125 C-4.99761719 11.94527344 -5.49132812 12.46476563 -6 13 C-6.33 12.01 -6.66 11.02 -7 10 C-6.01 9.67 -5.02 9.34 -4 9 C-4 8.34 -4 7.68 -4 7 C-3.34 7 -2.68 7 -2 7 C-1.34 4.69 -0.68 2.38 0 0 Z " fill="#307AE2" transform="translate(659,527)"/>
<path d="M0 0 C1.98 1.65 3.96 3.3 6 5 C5.01 5.66 4.02 6.32 3 7 C1.68 6.34 0.36 5.68 -1 5 C-0.67 3.35 -0.34 1.7 0 0 Z " fill="#2B7CED" transform="translate(388,495)"/>
<path d="M0 0 C3.08089673 2.77280706 4.68775452 5.06326356 6 9 C5.34 9 4.68 9 4 9 C3.34 8.34 2.68 7.68 2 7 C1.34 6.67 0.68 6.34 0 6 C-0.6875 4.0625 -0.6875 4.0625 -1 2 C-0.67 1.34 -0.34 0.68 0 0 Z " fill="#2F7CEA" transform="translate(236,533)"/>
<path d="M0 0 C2.475 0.495 2.475 0.495 5 1 C5.33 3.64 5.66 6.28 6 9 C3.59927045 6.11912454 1.52708963 3.43595166 0 0 Z " fill="#347EE7" transform="translate(151,457)"/>
<path d="M0 0 C0.33 0 0.66 0 1 0 C1.28571429 8.57142857 1.28571429 8.57142857 -1 12 C-1.66 12 -2.32 12 -3 12 C-2.01 8.04 -1.02 4.08 0 0 Z " fill="#D7F0FE" transform="translate(802,513)"/>
<path d="M0 0 C0.66 0 1.32 0 2 0 C2 0.66 2 1.32 2 2 C3.32 1.67 4.64 1.34 6 1 C6.33 2.65 6.66 4.3 7 6 C4.12549673 4.71142957 2.07476576 3.38598062 0 1 C0 0.67 0 0.34 0 0 Z " fill="#2A78E9" transform="translate(543,501)"/>
<path d="M0 0 C4 2 4 2 6 5 C5.67 6.32 5.34 7.64 5 9 C3.35 6.03 1.7 3.06 0 0 Z " fill="#DBF2FE" transform="translate(191,462)"/>
</svg>
